<svg id="Layer" enable-background="new 0 0 64 64" height="512" viewBox="0 0 64 64" width="512" xmlns="http://www.w3.org/2000/svg"><path d="m44.02 19.98c3.08 3.08 4.98 7.32 4.98 12.02s-1.9 8.94-4.98 12.02-7.32 4.98-12.02 4.98-8.94-1.9-12.02-4.98-4.98-7.32-4.98-12.02 1.9-8.94 4.98-12.02 7.32-4.98 12.02-4.98 8.94 1.9 12.02 4.98zm-11.02 9.02c0-2.76-2.24-5-5-5s-5 2.24-5 5 2.24 5 5 5 5-2.24 5-5z" fill="#ff7043"/><circle cx="28" cy="29" fill="#4dd0e1" r="5"/><g fill="#012e52"><path d="m28 22c-3.86 0-7 3.141-7 7s3.14 7 7 7 7-3.141 7-7-3.14-7-7-7zm0 10c-1.654 0-3-1.346-3-3s1.346-3 3-3 3 1.346 3 3-1.346 3-3 3z"/><path d="m54 30h-3.109c-.381-3.658-1.801-7.088-4.12-9.943l2.202-2.202c.781-.781.781-2.047 0-2.828-.78-.781-2.048-.781-2.828 0l-2.203 2.203c-2.856-2.319-6.286-3.74-9.943-4.12v-3.11c0-1.104-.896-2-2-2s-2 .896-2 2v3.109c-3.658.381-7.087 1.802-9.943 4.12l-2.203-2.203c-.78-.781-2.048-.781-2.828 0-.781.781-.781 2.047 0 2.828l2.202 2.202c-2.318 2.855-3.739 6.285-4.12 9.943h-3.107c-1.104 0-2 .896-2 2s.896 2 2 2h3.109c.381 3.658 1.801 7.088 4.12 9.943l-2.202 2.202c-.781.781-.781 2.047 0 2.828.39.391.902.586 1.414.586s1.024-.195 1.414-.586l2.203-2.203c2.856 2.319 6.286 3.74 9.943 4.12v3.111c0 1.104.896 2 2 2s2-.896 2-2v-3.109c3.658-.381 7.087-1.802 9.943-4.12l2.203 2.203c.39.391.902.586 1.414.586s1.024-.195 1.414-.586c.781-.781.781-2.047 0-2.828l-2.202-2.202c2.318-2.855 3.739-6.285 4.12-9.943h3.107c1.104 0 2-.896 2-2s-.896-2.001-2-2.001zm-11.394 12.605c-2.834 2.834-6.601 4.395-10.606 4.395s-7.772-1.561-10.606-4.395c-2.833-2.833-4.394-6.599-4.394-10.605s1.561-7.772 4.394-10.605c2.834-2.834 6.601-4.395 10.606-4.395s7.772 1.561 10.606 4.395c2.833 2.833 4.394 6.599 4.394 10.605s-1.561 7.772-4.394 10.605z"/></g></svg>